{
  "accessors": [
    {
      "bufferView": 2,
      "componentType": 5126,
      "count": 24747,
      "max": [
        0.2568977177143097,
        0.7160143852233887,
        0.16505169868469238
      ],
      "min": [
        -0.2728545367717743,
        0.021430790424346924,
        -0.15480300784111023
      ],
      "type": "VEC3"
    },
    {
      "bufferView": 2,
      "byteOffset": 296964,
      "componentType": 5126,
      "count": 24747,
      "max": [
        1.0,
        1.0,
        1.0
      ],
      "min": [
        -1.0,
        -1.0,
        -1.0
      ],
      "type": "VEC3"
    },
    {
      "bufferView": 1,
      "componentType": 5126,
      "count": 24747,
      "max": [
        0.8739346861839294,
        0.9989346861839294
      ],
      "min": [
        0.48401838541030884,
        0.014734335243701935
      ],
      "type": "VEC2"
    },
    {
      "bufferView": 0,
      "componentType": 5125,
      "count": 116244,
      "type": "SCALAR"
    },
    {
      "bufferView": 2,
      "byteOffset": 593928,
      "componentType": 5126,
      "count": 39946,
      "max": [
        0.2840614914894104,
        0.7306933999061584,
        0.16730982065200806
      ],
      "min": [
        -0.2828019857406616,
        -0.03306162357330322,
        -0.1515488624572754
      ],
      "type": "VEC3"
    },
    {
      "bufferView": 2,
      "byteOffset": 1073280,
      "componentType": 5126,
      "count": 39946,
      "max": [
        1.0,
        1.0,
        1.0
      ],
      "min": [
        -1.0,
        -1.0,
        -1.0
      ],
      "type": "VEC3"
    },
    {
      "bufferView": 1,
      "byteOffset": 197976,
      "componentType": 5126,
      "count": 39946,
      "max": [
        1.0005779266357422,
        1.0073505640029907
      ],
      "min": [
        -0.0005654147244058549,
        -2.395089495621505e-07
      ],
      "type": "VEC2"
    },
    {
      "bufferView": 0,
      "byteOffset": 464976,
      "componentType": 5125,
      "count": 182268,
      "type": "SCALAR"
    },
    {
      "bufferView": 2,
      "byteOffset": 1552632,
      "componentType": 5126,
      "count": 16443,
      "max": [
        0.27454861998558044,
        0.3861202597618103,
        0.16801592707633972
      ],
      "min": [
        -0.28540337085723877,
        -0.024229854345321655,
        -0.15220816433429718
      ],
      "type": "VEC3"
    },
    {
      "bufferView": 2,
      "byteOffset": 1749948,
      "componentType": 5126,
      "count": 16443,
      "max": [
        1.0,
        1.0,
        1.0
      ],
      "min": [
        -1.0,
        -1.0,
        -1.0
      ],
      "type": "VEC3"
    },
    {
      "bufferView": 1,
      "byteOffset": 517544,
      "componentType": 5126,
      "count": 16443,
      "max": [
        0.8750001788139343,
        1.0000001192092896
      ],
      "min": [
        0.0,
        0.0
      ],
      "type": "VEC2"
    },
    {
      "bufferView": 0,
      "byteOffset": 1194048,
      "componentType": 5125,
      "count": 70392,
      "type": "SCALAR"
    },
    {
      "bufferView": 2,
      "byteOffset": 1947264,
      "componentType": 5126,
      "count": 1594,
      "max": [
        0.07538659125566483,
        0.3218896985054016,
        0.01264837384223938
      ],
      "min": [
        -0.07538659870624542,
        0.28019315004348755,
        -0.01371709257364273
      ],
      "type": "VEC3"
    },
    {
      "bufferView": 2,
      "byteOffset": 1966392,
      "componentType": 5126,
      "count": 1594,
      "max": [
        0.9999927282333374,
        0.9990128874778748,
        0.999924898147583
      ],
      "min": [
        -0.9999927878379822,
        -0.999628484249115,
        -0.9980950951576233
      ],
      "type": "VEC3"
    },
    {
      "bufferView": 1,
      "byteOffset": 649088,
      "componentType": 5126,
      "count": 1594,
      "max": [
        0.6250001192092896,
        1.0000001192092896
      ],
      "min": [
        0.6219921708106995,
        0.0
      ],
      "type": "VEC2"
    },
    {
      "bufferView": 0,
      "byteOffset": 1475616,
      "componentType": 5125,
      "count": 4680,
      "type": "SCALAR"
    },
    {
      "bufferView": 2,
      "byteOffset": 1985520,
      "componentType": 5126,
      "count": 374,
      "max": [
        0.07355701923370361,
        0.28066354990005493,
        0.00592833012342453
      ],
      "min": [
        -0.07355701923370361,
        0.0,
        -0.0059359148144721985
      ],
      "type": "VEC3"
    },
    {
      "bufferView": 2,
      "byteOffset": 1990008,
      "componentType": 5126,
      "count": 374,
      "max": [
        1.0,
        0.09147980064153671,
        0.9999245405197144
      ],
      "min": [
        -1.0,
        -0.2180478572845459,
        -1.0
      ],
      "type": "VEC3"
    },
    {
      "bufferView": 1,
      "byteOffset": 661840,
      "componentType": 5126,
      "count": 374,
      "max": [
        0.6220160722732544,
        0.9711474180221558
      ],
      "min": [
        0.375,
        0.0
      ],
      "type": "VEC2"
    },
    {
      "bufferView": 0,
      "byteOffset": 1494336,
      "componentType": 5125,
      "count": 1248,
      "type": "SCALAR"
    }
  ],
  "asset": {
    "extras": {
      "author": "adrian saputra (https://sketchfab.com/adriansaputra996)",
      "license": "CC-BY-4.0 (http://creativecommons.org/licenses/by/4.0/)",
      "source": "https://sketchfab.com/3d-models/hard-trolley-bag-with-adjustable-handle-1758ad5207d943d597db8ff2b21bf827",
      "title": "Hard Trolley Bag With Adjustable Handle"
    },
    "generator": "Sketchfab-13.33.0",
    "version": "2.0"
  },
  "bufferViews": [
    {
      "buffer": 0,
      "byteLength": 1499328,
      "name": "floatBufferViews",
      "target": 34963
    },
    {
      "buffer": 0,
      "byteLength": 664832,
      "byteOffset": 1499328,
      "byteStride": 8,
      "name": "floatBufferViews",
      "target": 34962
    },
    {
      "buffer": 0,
      "byteLength": 1994496,
      "byteOffset": 2164160,
      "byteStride": 12,
      "name": "floatBufferViews",
      "target": 34962
    }
  ],
  "buffers": [
    {
      "byteLength": 4158656,
      "uri": "scene.bin"
    }
  ],
  "materials": [
    {
      "doubleSided": true,
      "name": "Mat_1",
      "pbrMetallicRoughness": {
        "baseColorFactor": [
          0.103357,
          0.132849,
          0.0834285,
          1.0
        ],
        "metallicFactor": 0.140741,
        "roughnessFactor": 0.440741
      }
    },
    {
      "doubleSided": true,
      "name": "Mat_2",
      "pbrMetallicRoughness": {
        "baseColorFactor": [
          0.0310633,
          0.0310633,
          0.0310633,
          1.0
        ],
        "metallicFactor": 0.0,
        "roughnessFactor": 0.5
      }
    },
    {
      "doubleSided": true,
      "name": "Mat_3",
      "pbrMetallicRoughness": {
        "baseColorFactor": [
          0.8,
          0.8,
          0.8,
          1.0
        ],
        "metallicFactor": 0.948148,
        "roughnessFactor": 0.237037
      }
    }
  ],
  "meshes": [
    {
      "name": "Object_0",
      "primitives": [
        {
          "attributes": {
            "NORMAL": 1,
            "POSITION": 0,
            "TEXCOORD_0": 2
          },
          "indices": 3,
          "material": 0,
          "mode": 4
        }
      ]
    },
    {
      "name": "Object_1",
      "primitives": [
        {
          "attributes": {
            "NORMAL": 5,
            "POSITION": 4,
            "TEXCOORD_0": 6
          },
          "indices": 7,
          "material": 1,
          "mode": 4
        }
      ]
    },
    {
      "name": "Object_2",
      "primitives": [
        {
          "attributes": {
            "NORMAL": 9,
            "POSITION": 8,
            "TEXCOORD_0": 10
          },
          "indices": 11,
          "material": 2,
          "mode": 4
        }
      ]
    },
    {
      "name": "Object_3",
      "primitives": [
        {
          "attributes": {
            "NORMAL": 13,
            "POSITION": 12,
            "TEXCOORD_0": 14
          },
          "indices": 15,
          "material": 1,
          "mode": 4
        }
      ]
    },
    {
      "name": "Object_4",
      "primitives": [
        {
          "attributes": {
            "NORMAL": 17,
            "POSITION": 16,
            "TEXCOORD_0": 18
          },
          "indices": 19,
          "material": 2,
          "mode": 4
        }
      ]
    }
  ],
  "nodes": [
    {
      "children": [
        1
      ],
      "matrix": [
        1.0,
        0.0,
        0.0,
        0.0,
        0.0,
        2.220446049250313e-16,
        -1.0,
        0.0,
        0.0,
        1.0,
        2.220446049250313e-16,
        0.0,
        0.0,
        0.0,
        0.0,
        1.0
      ],
      "name": "Sketchfab_model"
    },
    {
      "children": [
        2
      ],
      "name": "root"
    },
    {
      "children": [
        3,
        7
      ],
      "matrix": [
        1.0,
        0.0,
        0.0,
        0.0,
        0.0,
        2.220446049250313e-16,
        1.0,
        0.0,
        0.0,
        -1.0,
        2.220446049250313e-16,
        0.0,
        0.0,
        0.0,
        0.0,
        1.0
      ],
      "name": "GLTF_SceneRootNode"
    },
    {
      "children": [
        4,
        5,
        6
      ],
      "name": "GEO_suitcase_0"
    },
    {
      "mesh": 0,
      "name": "Object_4"
    },
    {
      "mesh": 1,
      "name": "Object_5"
    },
    {
      "mesh": 2,
      "name": "Object_6"
    },
    {
      "children": [
        8,
        9
      ],
      "matrix": [
        1.0,
        0.0,
        0.0,
        0.0,
        0.0,
        1.0,
        0.0,
        0.0,
        0.0,
        0.0,
        1.0,
        0.0,
        -0.008755743503570557,
        0.6514988541603088,
        -0.12329644709825516,
        1.0
      ],
      "name": "GEO_suitcase.001_1"
    },
    {
      "mesh": 3,
      "name": "Object_8"
    },
    {
      "mesh": 4,
      "name": "Object_9"
    }
  ],
  "scene": 0,
  "scenes": [
    {
      "name": "Sketchfab_Scene",
      "nodes": [
        0
      ]
    }
  ]
}
